/* XPM */
static char *_b365b9feeb24c6b967ff38662960b15SdleL3kfQISBSBkt[] = {
/* columns rows colors chars-per-pixel */
"31 31 3 1 ",
"  c #C0D470",
". c #A4C263",
"X c #E8EEAA",
/* pixels */
"                               ",
"                               ",
"                               ",
"            .            . .   ",
"           .              .    ",
"           .                   ",
"    .                          ",
"     .                         ",
"     .    .                    ",
"         .                     ",
"         .         . .         ",
"                    .          ",
"                               ",
"                               ",
"                               ",
"                               ",
"                               ",
"                               ",
"                               ",
"                           X X ",
"                            X  ",
"       X                       ",
"      X                        ",
"   X  X                        ",
"    X X                        ",
"    X     X                    ",
"    X      X        X X        ",
"           X         X         ",
"           X                   ",
"                               ",
"                               "
};
