/* XPM */
static char *nest[] = {
/* columns rows colors chars-per-pixel */
"32 18 41 1 ",
"  c #947A4B",
". c #997F4A",
"X c #9C8147",
"o c #9C834C",
"O c #9F8650",
"+ c #A18746",
"@ c #A48A46",
"# c #A88E46",
"$ c #A1874A",
"% c #A48B4C",
"& c #A88F4B",
"* c #AD9346",
"= c #AC934B",
"- c #AF984F",
"; c #B39A47",
": c #B09648",
"> c #B49B4B",
", c #A58C50",
"< c #AC9452",
"1 c #AF9853",
"2 c #B39B53",
"3 c #B49D5A",
"4 c #B7A04D",
"5 c #BAA24E",
"6 c #B7A053",
"7 c #BBA453",
"8 c #BFA954",
"9 c #B7A058",
"0 c #BBA55B",
"q c #BFA95C",
"w c #C1AB55",
"e c #C2AD5D",
"r c #C6B15C",
"t c #C8B35D",
"y c #C3AE60",
"u c #C6B160",
"i c #C9B463",
"p c #CEBA64",
"a c #D1BD66",
"s c #D4C066",
"d c None",
/* pixels */
"dddddd                    dddddd",
"ddddddooOOOOOoooOooOOOOOO dddddd",
"ddddoo,1333031<=<<<33393<,,Odddd",
"dddd,<270qyeq062499qyyqq92,,dddd",
"dd,<39qeqqqerw75478rrq00ee331<dd",
"dd<3qete0307554444557790eiyq3<dd",
" O1qiapu3<=*;:***:::*=<3ypai01O ",
" O1qpsai01=@@@@@X#@@#=10iaapq<O ",
" O,9rpapiq1,XoXXoXXo%3qtaapr6&o ",
" .%38tppat9<Oooo$oo$<9uaaitw2&o ",
" .%=4wtttr021<=11<=128ettew4=%. ",
" oX*;4wwwe887677667278wwww5>&$. ",
"dd$%#:>555w8www8w8844488w8>=+Xdd",
"ddXX@&::>>448888w85>;;>>42<%$.dd",
"ddddX%#***:2>26272;=***=>=&,dddd",
"ddddXX+@@@%&<=<<<%&&+@@%%<,$dddd",
"dddddd.....oooooooo....ooodddddd",
"dddddd                    dddddd"
};
