/* XPM */
static char *water[] = {
/* columns rows colors chars-per-pixel */
"32 32 12 1 ",
"  c #ACDDBF",
". c #ACDEBF",
"X c #ADDEBF",
"o c #B2E0BE",
"O c #B2E1BE",
"+ c #9AD4C3",
"@ c #9BD4C3",
"# c #9CD5C3",
"$ c #9FD6C2",
"% c #A0D7C2",
"& c #A1D7C2",
"* c #A8DBC0",
/* pixels */
"@@@@@@@@@@#@@@@@@@@@@@@@@% OOOOO",
"@@#@@@@@@@@@@@@@@@@@@@@@##*     ",
"@@@@@@@@@@@@@@@#@#@@@@@@@##%%%%%",
"@@@@#@@@@@@@@##&%&&##@@@@@#@++++",
"@@@@@@@@@@@@@%*    *##@@@@@@@@+@",
"@@@@@@@@@@@@@%*     %@@@@@@@@@@@",
"@@@@@@@@@@@@@##&&%%##@@@@@@@@@@@",
"@@@@@@@@@@@@@@@@@@@@@@@@@@@@@@+@",
"@@@@@@@@@@@@@@@@@@@@@@@@@@@@@@@@",
"%%%%%%#@@@@@@@@@@@@@@@@@@@@@@##%",
"     *#@@@@@@#@@@@@@@@@@@@@@#%  ",
"     *%@@@@#@@@@@@@@@@@@@@@@@#* ",
"%%%%%##@@@@@@@@@@@@@@@@@@@@@@##&",
"@@++@#@@@@@@@@@@@@@@@@@@@@@@@@@#",
"@@@@@@@@@@@@#@@@##@@@@@#@@@@@@@@",
"@@@@@@@@@@@@@@@@@##%%%%&&##@@@@@",
"@@@@@@@@@@@@@@@@@%*       %@@@@@",
"@@@@@@@@@@@@@@@@@#       *#@@@@@",
"@@@@@@@@@@#@@@@@@##%%%%%#%#@@@@#",
"@@@@#@@##%&##@@@@@@@++@@@@@@@@@@",
"@@@@@@@%   *%@@@@@@@@@@@@@@@@@@@",
"@#@@@@@#   *#@@@@@@@@@@@@@@@@@@@",
"@@@@#@@##%#%#@@@@@@@@@@@@@#@+@@@",
"@@@@@@@@#@@@@@@@@@@@@@@@@##%%%%%",
"@@@@@@@@@@@@@@@@+@@@@@@@@#*     ",
"@@@@@@#@@#@@@#%#%%%##@@@@%      ",
"#@@@@@@@@@@@@%     *##@@@##%%%%%",
"@@@@@@@@@@@@+#*     %@@@@@#@@++@",
"@@@@@@@@@@@@@##%%%%##@@@@@@@+@@+",
"@@@@@@@@@@@@@@#@@@@#@@@@@@@@@@@@",
"#@@@@@@@@@@@@@@@@@@@@@@@@@@@@@@@",
"@@@@@@@#@@@@@#@@@@@@@@@@@@@@@@@@"
};
